<svg width="158" height="54" viewBox="0 0 158 54" fill="none" xmlns="http://www.w3.org/2000/svg">
<g clip-path="url(#clip0)">
<path d="M157.999 19.9563C158 17.9318 157.521 15.9349 156.601 14.1225C155.681 12.3101 154.344 10.7317 152.697 9.51153C151.049 8.29135 149.135 7.46262 147.105 7.09052C145.075 6.71843 142.985 6.81313 140.999 7.36716C139.904 5.15858 138.197 3.29657 136.074 1.99389C133.951 0.691205 131.497 0.000396729 128.992 0.000396729C126.487 0.000396729 124.033 0.691205 121.91 1.99389C119.786 3.29657 118.08 5.15858 116.985 7.36716C115.268 6.88882 113.471 6.75299 111.699 6.96771C109.928 7.18243 108.219 7.74333 106.673 8.61723C105.126 9.49112 103.775 10.6602 102.698 12.0554C101.62 13.4506 100.84 15.0434 100.401 16.7397C99.9633 18.4359 99.8767 20.2011 100.147 21.9308C100.417 23.6604 101.038 25.3194 101.974 26.8095C102.909 28.2996 104.14 29.5905 105.594 30.6059C107.047 31.6213 108.694 32.3405 110.436 32.7209C109.769 32.3774 105.363 30.0021 103.693 25.7119C101.457 19.9563 104.006 16.1522 104.006 16.1522C102.389 21.8639 105.516 26.5487 110.16 28.2114C113.343 29.2347 119.784 27.8753 118.584 24.3525C118.014 22.7963 117.886 21.1181 118.211 19.4959C118.211 19.4959 118.401 23.6728 125.218 25.9019C132.035 28.1311 138.219 25.171 138.219 25.171C138.219 25.171 136.258 28.5038 121.841 30.0459C113.373 30.9559 110.525 39.4668 114.789 43.8922C116.493 45.6572 119.113 45.1346 121.759 44.8569C128.237 44.1736 131.804 44.5353 131.804 44.5353H131.782C136.325 44.7137 140.805 45.6492 145.028 47.3017L146.385 36.0134C140.328 35.0816 139.098 30.8499 139.098 30.8499C141.435 33.079 145.662 32.9548 146.762 32.8817C149.896 32.389 152.749 30.8172 154.809 28.4485C156.868 26.0797 158 23.0689 157.999 19.9563ZM133.865 4.24271C127.175 3.14642 120.947 7.00539 119.951 12.8523C119.853 13.4355 119.809 14.0263 119.821 14.6174C119.106 13.1388 118.867 11.4818 119.135 9.86672C119.951 5.05763 125.054 1.89664 130.537 2.79195C132.05 3.03623 133.495 3.58762 134.778 4.41081C134.48 4.34138 134.175 4.27926 133.865 4.2281V4.24271ZM146.911 29.9582C145.599 29.9598 144.304 29.6739 143.12 29.1214C143.381 29.1397 143.646 29.1506 143.91 29.1506C149.676 29.1506 154.347 24.7471 154.347 19.3132C154.347 18.7706 154.299 18.229 154.205 17.6943C155.024 18.9474 155.46 20.4046 155.461 21.8931C155.454 26.3368 151.626 29.9436 146.9 29.9436L146.911 29.9582Z" fill="#003146"/>
<path d="M129.311 46.5598C125.98 46.5291 122.653 46.8254 119.382 47.4441C121.76 47.2145 124.148 47.1023 126.538 47.1079C135.595 47.1079 142.938 48.6208 142.938 50.4845C142.938 52.3482 135.595 53.8611 126.538 53.8611C125.984 53.8611 125.437 53.8611 124.898 53.8611C126.296 53.9635 127.776 54.0183 129.307 54.0183C137.78 54.0183 144.649 52.3519 144.649 50.2982C144.649 48.2444 137.783 46.5598 129.311 46.5598Z" fill="#003146"/>
</g>
<path d="M12.4638 13.95C12.5238 13.95 12.5688 14.03 12.5988 14.19C12.6388 14.34 12.6588 14.535 12.6588 14.775V17.175C12.6588 17.415 12.6388 17.615 12.5988 17.775C12.5688 17.925 12.5238 18 12.4638 18C12.2738 18 12.1188 17.995 11.9988 17.985V18.045C11.9988 18.835 11.7338 19.555 11.2038 20.205C10.6738 20.855 9.95375 21.365 9.04375 21.735C8.13375 22.105 7.13875 22.29 6.05875 22.29C4.47875 22.29 3.32375 22.005 2.59375 21.435C1.87375 20.865 1.51375 20.035 1.51375 18.945C1.51375 18.485 1.56875 17.84 1.67875 17.01C1.78875 16.18 1.98375 14.895 2.26375 13.155L4.61875 13.575C4.26875 15.775 4.09375 17.08 4.09375 17.49C4.09375 17.79 4.25375 18.015 4.57375 18.165C4.90375 18.315 5.36375 18.39 5.95375 18.39C6.77375 18.39 7.51875 18.35 8.18875 18.27C8.86875 18.19 9.35375 18.075 9.64375 17.925C9.53375 17.845 9.37875 17.78 9.17875 17.73C8.35875 17.63 7.78375 17.555 7.45375 17.505L8.02375 13.95H12.4638ZM18.6468 13.95C18.6968 13.95 18.7368 14.03 18.7668 14.19C18.8068 14.35 18.8268 14.545 18.8268 14.775V17.175C18.8268 17.405 18.8068 17.6 18.7668 17.76C18.7368 17.92 18.6968 18 18.6468 18C17.7568 18 17.0818 17.91 16.6218 17.73C16.1718 17.55 15.8618 17.22 15.6918 16.74C15.5518 17.09 15.3568 17.355 15.1068 17.535C14.8668 17.715 14.5418 17.84 14.1318 17.91C13.7218 17.97 13.1618 18 12.4518 18C12.3918 18 12.3468 17.925 12.3168 17.775C12.2768 17.615 12.2568 17.415 12.2568 17.175V14.775C12.2568 14.535 12.2768 14.34 12.3168 14.19C12.3468 14.03 12.3918 13.95 12.4518 13.95C13.4218 13.95 14.1218 13.885 14.5518 13.755L14.1918 11.37L17.0418 11.04L17.1168 13.815C17.5668 13.905 18.0768 13.95 18.6468 13.95ZM18.7818 8.25L17.2068 10.125L15.4968 8.685L14.2068 10.215L12.3318 8.64L13.9068 6.765L15.6168 8.205L16.9068 6.675L18.7818 8.25ZM24.8431 13.95C24.8931 13.95 24.9331 14.03 24.9631 14.19C25.0031 14.35 25.0231 14.545 25.0231 14.775V17.175C25.0231 17.405 25.0031 17.6 24.9631 17.76C24.9331 17.92 24.8931 18 24.8431 18C23.9531 18 23.2781 17.91 22.8181 17.73C22.3681 17.55 22.0581 17.22 21.8881 16.74C21.7481 17.09 21.5531 17.355 21.3031 17.535C21.0631 17.715 20.7381 17.84 20.3281 17.91C19.9181 17.97 19.3581 18 18.6481 18C18.5881 18 18.5431 17.925 18.5131 17.775C18.4731 17.615 18.4531 17.415 18.4531 17.175V14.775C18.4531 14.535 18.4731 14.34 18.5131 14.19C18.5431 14.03 18.5881 13.95 18.6481 13.95C19.6181 13.95 20.3181 13.885 20.7481 13.755L20.3881 11.37L23.2381 11.04L23.3131 13.815C23.7631 13.905 24.2731 13.95 24.8431 13.95ZM21.5731 6.435L23.6431 8.175L21.9481 10.215L19.8781 8.49L21.5731 6.435ZM36.8444 10.965C36.9644 12.625 37.0244 13.795 37.0244 14.475C37.0244 15.305 36.8694 15.985 36.5594 16.515C36.2494 17.045 35.8644 17.425 35.4044 17.655C34.9544 17.885 34.4894 18 34.0094 18C32.7294 18 31.9144 17.655 31.5644 16.965C31.3744 17.355 31.0844 17.625 30.6944 17.775C30.3144 17.925 29.9094 18 29.4794 18C28.9994 18 28.5794 17.92 28.2194 17.76C27.8594 17.59 27.5694 17.34 27.3494 17.01C26.9394 17.67 26.1094 18 24.8594 18C24.7994 18 24.7544 17.925 24.7244 17.775C24.6844 17.615 24.6644 17.415 24.6644 17.175V14.775C24.6644 14.535 24.6844 14.34 24.7244 14.19C24.7544 14.03 24.7994 13.95 24.8594 13.95C25.5394 13.95 26.0544 13.875 26.4044 13.725L26.3894 12.09L28.9544 12.075V13.305C28.9544 13.525 28.9994 13.69 29.0894 13.8C29.1794 13.9 29.3294 13.95 29.5394 13.95C29.8494 13.95 30.1244 13.9 30.3644 13.8L30.2444 11.67L32.7944 11.535L32.8244 13.875C32.9744 13.925 33.1744 13.95 33.4244 13.95C33.7444 13.95 34.0544 13.9 34.3544 13.8L33.9194 10.89L36.7994 10.35L36.8444 10.965ZM45.5506 21.69C43.9706 21.69 42.8156 21.405 42.0856 20.835C41.3656 20.265 41.0056 19.435 41.0056 18.345C41.0056 17.885 41.0606 17.24 41.1706 16.41C41.2806 15.58 41.4756 14.295 41.7556 12.555L44.1106 12.975C43.7606 15.175 43.5856 16.48 43.5856 16.89C43.5856 17.18 43.7356 17.38 44.0356 17.49C44.3456 17.59 44.8156 17.64 45.4456 17.64C46.0156 17.64 46.4856 17.62 46.8556 17.58C47.2256 17.54 47.5856 17.465 47.9356 17.355L47.1556 12.225L49.9906 11.595C50.1806 13.415 50.3206 14.88 50.4106 15.99C50.5106 17.09 50.5556 17.975 50.5456 18.645C50.5456 19.415 50.2606 20.025 49.6906 20.475C49.1206 20.935 48.4556 21.25 47.6956 21.42C46.9356 21.6 46.2206 21.69 45.5506 21.69ZM45.3256 8.04L47.3956 9.78L45.7006 11.82L43.6306 10.095L45.3256 8.04ZM51.9741 6.15L54.9741 5.7L54.8541 18L52.4241 18.27L51.9741 6.15ZM53.3547 19.98C54.7947 19.38 55.8347 18.865 56.4747 18.435C57.1247 18.005 57.5797 17.55 57.8397 17.07L57.0147 12.165L59.9997 11.565C60.1497 12.945 60.2547 13.99 60.3147 14.7C60.3847 15.41 60.4197 16.055 60.4197 16.635C60.4197 17.625 60.2647 18.49 59.9547 19.23C59.6447 19.97 59.1247 20.66 58.3947 21.3C57.6647 21.94 56.6597 22.575 55.3797 23.205L53.3547 19.98ZM69.3014 13.95C69.3614 13.95 69.4064 14.03 69.4364 14.19C69.4764 14.34 69.4964 14.535 69.4964 14.775V17.175C69.4964 17.415 69.4764 17.615 69.4364 17.775C69.4064 17.925 69.3614 18 69.3014 18H68.3564C67.8164 20.26 66.1814 21.995 63.4514 23.205L61.4264 19.98C62.2764 19.69 63.0764 19.345 63.8264 18.945C64.5864 18.545 65.1814 18.17 65.6114 17.82C65.2914 17.84 65.0264 17.85 64.8164 17.85C64.3064 17.85 63.9164 17.825 63.6464 17.775C63.3764 17.725 63.1564 17.64 62.9864 17.52C62.8264 17.4 62.6564 17.21 62.4764 16.95C62.2664 16.65 62.1314 16.395 62.0714 16.185C62.0214 15.965 61.9964 15.69 61.9964 15.36C61.9964 14.4 62.1314 13.57 62.4014 12.87C62.6714 12.17 63.0464 11.64 63.5264 11.28C64.0164 10.91 64.5864 10.725 65.2364 10.725C65.6964 10.725 66.1414 10.84 66.5714 11.07C67.0114 11.3 67.3964 11.66 67.7264 12.15C68.0664 12.63 68.3114 13.23 68.4614 13.95H69.3014ZM64.3214 14.955C64.4114 14.965 64.5614 14.98 64.7714 15C64.9814 15.01 65.1764 15.015 65.3564 15.015C65.7164 15.015 66.0064 14.995 66.2264 14.955C66.2264 14.515 66.1314 14.18 65.9414 13.95C65.7514 13.72 65.5114 13.605 65.2214 13.605C64.9614 13.605 64.7464 13.715 64.5764 13.935C64.4064 14.155 64.3214 14.495 64.3214 14.955ZM75.4827 13.95C75.5327 13.95 75.5727 14.03 75.6027 14.19C75.6427 14.35 75.6627 14.545 75.6627 14.775V17.175C75.6627 17.405 75.6427 17.6 75.6027 17.76C75.5727 17.92 75.5327 18 75.4827 18C74.5927 18 73.9177 17.91 73.4577 17.73C73.0077 17.55 72.6977 17.22 72.5277 16.74C72.3877 17.09 72.1927 17.355 71.9427 17.535C71.7027 17.715 71.3777 17.84 70.9677 17.91C70.5577 17.97 69.9977 18 69.2877 18C69.2277 18 69.1827 17.925 69.1527 17.775C69.1127 17.615 69.0927 17.415 69.0927 17.175V14.775C69.0927 14.535 69.1127 14.34 69.1527 14.19C69.1827 14.03 69.2277 13.95 69.2877 13.95C70.2577 13.95 70.9577 13.885 71.3877 13.755L71.0277 11.37L73.8777 11.04L73.9527 13.815C74.4027 13.905 74.9127 13.95 75.4827 13.95ZM75.6177 8.25L74.0427 10.125L72.3327 8.685L71.0427 10.215L69.1677 8.64L70.7427 6.765L72.4527 8.205L73.7427 6.675L75.6177 8.25ZM87.484 10.965C87.604 12.625 87.664 13.795 87.664 14.475C87.664 15.305 87.509 15.985 87.199 16.515C86.889 17.045 86.504 17.425 86.044 17.655C85.594 17.885 85.129 18 84.649 18C83.369 18 82.554 17.655 82.204 16.965C82.014 17.355 81.724 17.625 81.334 17.775C80.954 17.925 80.549 18 80.119 18C79.639 18 79.219 17.92 78.859 17.76C78.499 17.59 78.209 17.34 77.989 17.01C77.579 17.67 76.749 18 75.499 18C75.439 18 75.394 17.925 75.364 17.775C75.324 17.615 75.304 17.415 75.304 17.175V14.775C75.304 14.535 75.324 14.34 75.364 14.19C75.394 14.03 75.439 13.95 75.499 13.95C76.179 13.95 76.694 13.875 77.044 13.725L77.029 12.09L79.594 12.075V13.305C79.594 13.525 79.639 13.69 79.729 13.8C79.819 13.9 79.969 13.95 80.179 13.95C80.489 13.95 80.764 13.9 81.004 13.8L80.884 11.67L83.434 11.535L83.464 13.875C83.614 13.925 83.814 13.95 84.064 13.95C84.384 13.95 84.694 13.9 84.994 13.8L84.559 10.89L87.439 10.35L87.484 10.965ZM86.1232 19.98C87.5632 19.38 88.6032 18.865 89.2432 18.435C89.8932 18.005 90.3482 17.55 90.6082 17.07L89.7832 12.165L92.7682 11.565C92.9182 12.945 93.0232 13.99 93.0832 14.7C93.1532 15.41 93.1882 16.055 93.1882 16.635C93.1882 17.625 93.0332 18.49 92.7232 19.23C92.4132 19.97 91.8932 20.66 91.1632 21.3C90.4332 21.94 89.4282 22.575 88.1482 23.205L86.1232 19.98ZM50.182 37.35C50.302 39.09 50.362 40.475 50.362 41.505C50.362 42.735 49.952 43.625 49.132 44.175C48.692 44.475 48.077 44.7 47.287 44.85C46.507 45 45.422 45.075 44.032 45.075C42.142 45.075 40.667 44.815 39.607 44.295C38.557 43.775 38.032 42.82 38.032 41.43C38.032 41.2 38.067 40.84 38.137 40.35C38.217 39.85 38.392 38.85 38.662 37.35L41.032 37.8C40.802 38.98 40.687 39.755 40.687 40.125C40.687 40.465 40.937 40.7 41.437 40.83C41.947 40.96 42.797 41.025 43.987 41.025C45.587 41.025 46.827 40.925 47.707 40.725L47.287 37.89L50.182 37.35ZM43.867 46.08L45.937 47.82L44.242 49.86L42.172 48.135L43.867 46.08ZM56.238 40.95C56.288 40.95 56.328 41.03 56.358 41.19C56.398 41.35 56.418 41.545 56.418 41.775V44.175C56.418 44.405 56.398 44.6 56.358 44.76C56.328 44.92 56.288 45 56.238 45H55.668C54.838 45 54.168 44.86 53.658 44.58C53.158 44.29 52.778 43.82 52.518 43.17C52.268 42.51 52.123 41.61 52.083 40.47L51.813 33.15L54.813 32.7L54.738 39.885C54.728 40.235 54.793 40.5 54.933 40.68C55.073 40.86 55.318 40.95 55.668 40.95H56.238ZM62.4163 40.95C62.4663 40.95 62.5063 41.03 62.5363 41.19C62.5763 41.35 62.5963 41.545 62.5963 41.775V44.175C62.5963 44.405 62.5763 44.6 62.5363 44.76C62.5063 44.92 62.4663 45 62.4163 45C61.5263 45 60.8513 44.91 60.3913 44.73C59.9413 44.55 59.6313 44.22 59.4613 43.74C59.3213 44.09 59.1263 44.355 58.8763 44.535C58.6363 44.715 58.3113 44.84 57.9013 44.91C57.4913 44.97 56.9313 45 56.2213 45C56.1613 45 56.1163 44.925 56.0863 44.775C56.0463 44.615 56.0263 44.415 56.0263 44.175V41.775C56.0263 41.535 56.0463 41.34 56.0863 41.19C56.1163 41.03 56.1613 40.95 56.2213 40.95C57.1913 40.95 57.8913 40.885 58.3213 40.755L57.9613 38.37L60.8113 38.04L60.8863 40.815C61.3363 40.905 61.8463 40.95 62.4163 40.95ZM58.7563 46.005L60.8263 47.745L59.1313 49.785L57.0613 48.06L58.7563 46.005ZM66.3176 36.69C67.1576 37.53 67.7926 38.37 68.2226 39.21C68.6626 40.05 68.8826 40.935 68.8826 41.865C68.8826 42.665 68.6576 43.295 68.2076 43.755C67.7676 44.205 67.0826 44.525 66.1526 44.715C65.2226 44.905 63.9826 45 62.4326 45C62.3726 45 62.3276 44.925 62.2976 44.775C62.2576 44.615 62.2376 44.415 62.2376 44.175V41.775C62.2376 41.535 62.2576 41.34 62.2976 41.19C62.3276 41.03 62.3726 40.95 62.4326 40.95C63.8926 40.95 65.0726 40.9 65.9726 40.8C65.7226 40.27 65.3026 39.74 64.7126 39.21C64.1226 38.67 63.4076 38.175 62.5676 37.725L62.6576 34.905C63.5576 34.445 64.5176 34.04 65.5376 33.69C66.5576 33.34 67.6726 33.01 68.8826 32.7L69.3026 35.925C68.3026 36.115 67.3076 36.37 66.3176 36.69ZM77.2438 40.95C77.2938 40.95 77.3338 41.03 77.3638 41.19C77.4038 41.35 77.4238 41.545 77.4238 41.775V44.175C77.4238 44.405 77.4038 44.6 77.3638 44.76C77.3338 44.92 77.2938 45 77.2438 45H76.6738C75.8438 45 75.1738 44.86 74.6638 44.58C74.1638 44.29 73.7838 43.82 73.5238 43.17C73.2738 42.51 73.1288 41.61 73.0888 40.47L72.8188 33.15L75.8188 32.7L75.7438 39.885C75.7338 40.235 75.7988 40.5 75.9388 40.68C76.0788 40.86 76.3238 40.95 76.6738 40.95H77.2438ZM82.1322 37.95C82.2522 39.61 82.3122 40.795 82.3122 41.505C82.3122 42.055 82.2172 42.56 82.0272 43.02C81.8472 43.47 81.5672 43.84 81.1872 44.13C80.8172 44.42 80.3322 44.64 79.7322 44.79C79.1322 44.93 78.3022 45 77.2422 45C77.1822 45 77.1372 44.925 77.1072 44.775C77.0672 44.615 77.0472 44.415 77.0472 44.175V41.775C77.0472 41.535 77.0672 41.34 77.1072 41.19C77.1372 41.03 77.1822 40.95 77.2422 40.95C78.3322 40.95 79.1222 40.885 79.6122 40.755L79.1922 37.905L82.0872 37.35L82.1322 37.95ZM79.1622 46.005L81.2322 47.745L79.5372 49.785L77.4672 48.06L79.1622 46.005ZM88.1569 40.95C88.2069 40.95 88.2469 41.03 88.2769 41.19C88.3169 41.35 88.3369 41.545 88.3369 41.775V44.175C88.3369 44.405 88.3169 44.6 88.2769 44.76C88.2469 44.92 88.2069 45 88.1569 45H87.5869C86.7569 45 86.0869 44.86 85.5769 44.58C85.0769 44.29 84.6969 43.82 84.4369 43.17C84.1869 42.51 84.0419 41.61 84.0019 40.47L83.7319 33.15L86.7319 32.7L86.6569 39.885C86.6469 40.235 86.7119 40.5 86.8519 40.68C86.9919 40.86 87.2369 40.95 87.5869 40.95H88.1569ZM93.0453 37.95C93.1653 39.61 93.2253 40.795 93.2253 41.505C93.2253 42.055 93.1303 42.56 92.9403 43.02C92.7603 43.47 92.4803 43.84 92.1003 44.13C91.7303 44.42 91.2453 44.64 90.6453 44.79C90.0453 44.93 89.2153 45 88.1553 45C88.0953 45 88.0503 44.925 88.0203 44.775C87.9803 44.615 87.9603 44.415 87.9603 44.175V41.775C87.9603 41.535 87.9803 41.34 88.0203 41.19C88.0503 41.03 88.0953 40.95 88.1553 40.95C89.2453 40.95 90.0353 40.885 90.5253 40.755L90.1053 37.905L93.0003 37.35L93.0453 37.95ZM90.0753 46.005L92.1453 47.745L90.4503 49.785L88.3803 48.06L90.0753 46.005Z" fill="#003146"/>
<defs>
<clipPath id="clip0">
<rect width="58" height="54" fill="white" transform="translate(100)"/>
</clipPath>
</defs>
</svg>
