<svg width="184" height="259" viewBox="0 0 184 259" fill="none" xmlns="http://www.w3.org/2000/svg">
<g clip-path="url(#clip0)">
<path d="M183.998 63.195C183.999 56.7841 182.481 50.4603 179.562 44.7211C176.643 38.9819 172.403 33.9837 167.176 30.1198C161.948 26.2559 155.876 23.6316 149.437 22.4533C142.998 21.275 136.367 21.5749 130.067 23.3293C126.593 16.3355 121.178 10.4391 114.442 6.31394C107.706 2.18878 99.9204 0.0012207 91.9743 0.0012207C84.0282 0.0012207 76.2424 2.18878 69.5064 6.31394C62.7705 10.4391 57.3561 16.3355 53.8819 23.3293C48.4357 21.8146 42.7343 21.3844 37.1152 22.0644C31.4961 22.7443 26.0735 24.5205 21.1683 27.2879C16.2631 30.0552 11.975 33.7574 8.55775 38.1754C5.14053 42.5934 2.66364 47.6374 1.27369 53.0089C-0.116267 58.3804 -0.391043 63.9701 0.465622 69.4474C1.32229 74.9246 3.29298 80.178 6.26108 84.8967C9.22917 89.6153 13.1343 93.7033 17.7455 96.9186C22.3566 100.134 27.5799 102.411 33.1064 103.616C30.9898 102.528 17.0133 95.0065 11.716 81.421C4.62133 63.195 12.7092 51.1485 12.7092 51.1485C7.57744 69.2356 17.4981 84.0709 32.2314 89.3362C42.3295 92.5764 62.7621 88.2716 58.9546 77.1161C57.1492 72.1882 56.7406 66.8738 57.7722 61.7369C57.7722 61.7369 58.3752 74.9638 80.0021 82.0227C101.629 89.0816 121.246 79.7083 121.246 79.7083C121.246 79.7083 115.026 90.262 69.2892 95.1454C42.424 98.0268 33.3902 124.978 46.9173 138.992C52.3211 144.581 60.6337 142.926 69.029 142.047C89.5799 139.883 100.896 141.029 100.896 141.029H100.825C115.239 141.593 129.45 144.556 142.849 149.789L147.153 114.043C127.938 111.092 124.036 97.6912 124.036 97.6912C131.45 104.75 144.859 104.357 148.347 104.125C158.292 102.565 167.343 97.5879 173.876 90.0868C180.41 82.5857 183.998 73.0515 183.998 63.195ZM107.435 13.4352C86.2099 9.96361 66.4513 22.1837 63.2942 40.6989C62.9819 42.5457 62.8433 44.4167 62.8803 46.2882C60.6117 41.606 59.8529 36.359 60.7046 31.2446C63.2942 16.0158 79.4818 6.00598 96.8756 8.84113C101.677 9.61469 106.26 11.3607 110.332 13.9675C109.386 13.7477 108.416 13.5509 107.435 13.3889V13.4352ZM148.82 94.8677C144.66 94.8726 140.551 93.9672 136.795 92.2177C137.623 92.2755 138.462 92.3102 139.302 92.3102C157.594 92.3102 172.41 78.3659 172.41 61.1583C172.41 59.4401 172.26 57.725 171.961 56.0319C174.56 60.0002 175.943 64.6144 175.946 69.3282C175.922 83.3998 163.778 94.8214 148.785 94.8214L148.82 94.8677Z" fill="#FE8A59"/>
<path d="M92.9875 147.439C82.4182 147.342 71.8656 148.28 61.4872 150.24C69.0318 149.513 76.609 149.157 84.1901 149.175C112.923 149.175 136.218 153.966 136.218 159.868C136.218 165.769 112.923 170.56 84.1901 170.56C82.4322 170.56 80.698 170.56 78.9874 170.56C83.4215 170.884 88.1158 171.058 92.9756 171.058C119.853 171.058 141.645 165.781 141.645 159.277C141.645 152.774 119.864 147.439 92.9875 147.439Z" fill="#FE8A59"/>
</g>
<path d="M44.9725 204.6C45.0525 204.6 45.1125 204.707 45.1525 204.92C45.2058 205.12 45.2325 205.38 45.2325 205.7V208.9C45.2325 209.22 45.2058 209.487 45.1525 209.7C45.1125 209.9 45.0525 210 44.9725 210C44.7192 210 44.5125 209.993 44.3525 209.98V210.06C44.3525 211.113 43.9992 212.073 43.2925 212.94C42.5858 213.807 41.6258 214.487 40.4125 214.98C39.1992 215.473 37.8725 215.72 36.4325 215.72C34.3258 215.72 32.7858 215.34 31.8125 214.58C30.8525 213.82 30.3725 212.713 30.3725 211.26C30.3725 210.647 30.4458 209.787 30.5925 208.68C30.7392 207.573 30.9992 205.86 31.3725 203.54L34.5125 204.1C34.0458 207.033 33.8125 208.773 33.8125 209.32C33.8125 209.72 34.0258 210.02 34.4525 210.22C34.8925 210.42 35.5058 210.52 36.2925 210.52C37.3858 210.52 38.3792 210.467 39.2725 210.36C40.1792 210.253 40.8258 210.1 41.2125 209.9C41.0658 209.793 40.8592 209.707 40.5925 209.64C39.4992 209.507 38.7325 209.407 38.2925 209.34L39.0525 204.6H44.9725ZM53.2166 204.6C53.2832 204.6 53.3366 204.707 53.3766 204.92C53.4299 205.133 53.4566 205.393 53.4566 205.7V208.9C53.4566 209.207 53.4299 209.467 53.3766 209.68C53.3366 209.893 53.2832 210 53.2166 210C52.0299 210 51.1299 209.88 50.5166 209.64C49.9166 209.4 49.5032 208.96 49.2766 208.32C49.0899 208.787 48.8299 209.14 48.4966 209.38C48.1766 209.62 47.7432 209.787 47.1966 209.88C46.6499 209.96 45.9032 210 44.9566 210C44.8766 210 44.8166 209.9 44.7766 209.7C44.7232 209.487 44.6966 209.22 44.6966 208.9V205.7C44.6966 205.38 44.7232 205.12 44.7766 204.92C44.8166 204.707 44.8766 204.6 44.9566 204.6C46.2499 204.6 47.1832 204.513 47.7566 204.34L47.2766 201.16L51.0766 200.72L51.1766 204.42C51.7766 204.54 52.4566 204.6 53.2166 204.6ZM53.3966 197L51.2966 199.5L49.0166 197.58L47.2966 199.62L44.7966 197.52L46.8966 195.02L49.1766 196.94L50.8966 194.9L53.3966 197ZM61.4783 204.6C61.5449 204.6 61.5983 204.707 61.6383 204.92C61.6916 205.133 61.7183 205.393 61.7183 205.7V208.9C61.7183 209.207 61.6916 209.467 61.6383 209.68C61.5983 209.893 61.5449 210 61.4783 210C60.2916 210 59.3916 209.88 58.7783 209.64C58.1783 209.4 57.7649 208.96 57.5383 208.32C57.3516 208.787 57.0916 209.14 56.7583 209.38C56.4383 209.62 56.0049 209.787 55.4583 209.88C54.9116 209.96 54.1649 210 53.2183 210C53.1383 210 53.0783 209.9 53.0383 209.7C52.9849 209.487 52.9583 209.22 52.9583 208.9V205.7C52.9583 205.38 52.9849 205.12 53.0383 204.92C53.0783 204.707 53.1383 204.6 53.2183 204.6C54.5116 204.6 55.4449 204.513 56.0183 204.34L55.5383 201.16L59.3383 200.72L59.4383 204.42C60.0383 204.54 60.7183 204.6 61.4783 204.6ZM57.1183 194.58L59.8783 196.9L57.6183 199.62L54.8583 197.32L57.1183 194.58ZM77.48 200.62C77.64 202.833 77.72 204.393 77.72 205.3C77.72 206.407 77.5133 207.313 77.1 208.02C76.6867 208.727 76.1733 209.233 75.56 209.54C74.96 209.847 74.34 210 73.7 210C71.9933 210 70.9067 209.54 70.44 208.62C70.1867 209.14 69.8 209.5 69.28 209.7C68.7733 209.9 68.2333 210 67.66 210C67.02 210 66.46 209.893 65.98 209.68C65.5 209.453 65.1133 209.12 64.82 208.68C64.2733 209.56 63.1667 210 61.5 210C61.42 210 61.36 209.9 61.32 209.7C61.2667 209.487 61.24 209.22 61.24 208.9V205.7C61.24 205.38 61.2667 205.12 61.32 204.92C61.36 204.707 61.42 204.6 61.5 204.6C62.4067 204.6 63.0933 204.5 63.56 204.3L63.54 202.12L66.96 202.1V203.74C66.96 204.033 67.02 204.253 67.14 204.4C67.26 204.533 67.46 204.6 67.74 204.6C68.1533 204.6 68.52 204.533 68.84 204.4L68.68 201.56L72.08 201.38L72.12 204.5C72.32 204.567 72.5867 204.6 72.92 204.6C73.3467 204.6 73.76 204.533 74.16 204.4L73.58 200.52L77.42 199.8L77.48 200.62ZM89.0883 214.92C86.9816 214.92 85.4416 214.54 84.4683 213.78C83.5083 213.02 83.0283 211.913 83.0283 210.46C83.0283 209.847 83.1016 208.987 83.2483 207.88C83.3949 206.773 83.6549 205.06 84.0283 202.74L87.1683 203.3C86.7016 206.233 86.4683 207.973 86.4683 208.52C86.4683 208.907 86.6683 209.173 87.0683 209.32C87.4816 209.453 88.1083 209.52 88.9483 209.52C89.7083 209.52 90.3349 209.493 90.8283 209.44C91.3216 209.387 91.8016 209.287 92.2683 209.14L91.2283 202.3L95.0083 201.46C95.2616 203.887 95.4483 205.84 95.5683 207.32C95.7016 208.787 95.7616 209.967 95.7483 210.86C95.7483 211.887 95.3683 212.7 94.6083 213.3C93.8483 213.913 92.9616 214.333 91.9483 214.56C90.9349 214.8 89.9816 214.92 89.0883 214.92ZM88.7883 196.72L91.5483 199.04L89.2883 201.76L86.5283 199.46L88.7883 196.72ZM97.653 194.2L101.653 193.6L101.493 210L98.253 210.36L97.653 194.2ZM99.4937 212.64C101.414 211.84 102.8 211.153 103.654 210.58C104.52 210.007 105.127 209.4 105.474 208.76L104.374 202.22L108.354 201.42C108.554 203.26 108.694 204.653 108.774 205.6C108.867 206.547 108.914 207.407 108.914 208.18C108.914 209.5 108.707 210.653 108.294 211.64C107.88 212.627 107.187 213.547 106.214 214.4C105.24 215.253 103.9 216.1 102.194 216.94L99.4937 212.64ZM120.756 204.6C120.836 204.6 120.896 204.707 120.936 204.92C120.989 205.12 121.016 205.38 121.016 205.7V208.9C121.016 209.22 120.989 209.487 120.936 209.7C120.896 209.9 120.836 210 120.756 210H119.496C118.776 213.013 116.596 215.327 112.956 216.94L110.256 212.64C111.389 212.253 112.456 211.793 113.456 211.26C114.469 210.727 115.263 210.227 115.836 209.76C115.409 209.787 115.056 209.8 114.776 209.8C114.096 209.8 113.576 209.767 113.216 209.7C112.856 209.633 112.563 209.52 112.336 209.36C112.123 209.2 111.896 208.947 111.656 208.6C111.376 208.2 111.196 207.86 111.116 207.58C111.049 207.287 111.016 206.92 111.016 206.48C111.016 205.2 111.196 204.093 111.556 203.16C111.916 202.227 112.416 201.52 113.056 201.04C113.709 200.547 114.469 200.3 115.336 200.3C115.949 200.3 116.543 200.453 117.116 200.76C117.703 201.067 118.216 201.547 118.656 202.2C119.109 202.84 119.436 203.64 119.636 204.6H120.756ZM114.116 205.94C114.236 205.953 114.436 205.973 114.716 206C114.996 206.013 115.256 206.02 115.496 206.02C115.976 206.02 116.363 205.993 116.656 205.94C116.656 205.353 116.529 204.907 116.276 204.6C116.023 204.293 115.703 204.14 115.316 204.14C114.969 204.14 114.683 204.287 114.456 204.58C114.229 204.873 114.116 205.327 114.116 205.94ZM128.998 204.6C129.064 204.6 129.118 204.707 129.158 204.92C129.211 205.133 129.238 205.393 129.238 205.7V208.9C129.238 209.207 129.211 209.467 129.158 209.68C129.118 209.893 129.064 210 128.998 210C127.811 210 126.911 209.88 126.298 209.64C125.698 209.4 125.284 208.96 125.058 208.32C124.871 208.787 124.611 209.14 124.278 209.38C123.958 209.62 123.524 209.787 122.978 209.88C122.431 209.96 121.684 210 120.738 210C120.658 210 120.598 209.9 120.558 209.7C120.504 209.487 120.478 209.22 120.478 208.9V205.7C120.478 205.38 120.504 205.12 120.558 204.92C120.598 204.707 120.658 204.6 120.738 204.6C122.031 204.6 122.964 204.513 123.538 204.34L123.058 201.16L126.858 200.72L126.958 204.42C127.558 204.54 128.238 204.6 128.998 204.6ZM129.178 197L127.078 199.5L124.798 197.58L123.078 199.62L120.578 197.52L122.678 195.02L124.958 196.94L126.678 194.9L129.178 197ZM145 200.62C145.16 202.833 145.24 204.393 145.24 205.3C145.24 206.407 145.033 207.313 144.62 208.02C144.206 208.727 143.693 209.233 143.08 209.54C142.48 209.847 141.86 210 141.22 210C139.513 210 138.426 209.54 137.96 208.62C137.706 209.14 137.32 209.5 136.8 209.7C136.293 209.9 135.753 210 135.18 210C134.54 210 133.98 209.893 133.5 209.68C133.02 209.453 132.633 209.12 132.34 208.68C131.793 209.56 130.686 210 129.02 210C128.94 210 128.88 209.9 128.84 209.7C128.786 209.487 128.76 209.22 128.76 208.9V205.7C128.76 205.38 128.786 205.12 128.84 204.92C128.88 204.707 128.94 204.6 129.02 204.6C129.926 204.6 130.613 204.5 131.08 204.3L131.06 202.12L134.48 202.1V203.74C134.48 204.033 134.54 204.253 134.66 204.4C134.78 204.533 134.98 204.6 135.26 204.6C135.673 204.6 136.04 204.533 136.36 204.4L136.2 201.56L139.6 201.38L139.64 204.5C139.84 204.567 140.106 204.6 140.44 204.6C140.866 204.6 141.28 204.533 141.68 204.4L141.1 200.52L144.94 199.8L145 200.62ZM143.185 212.64C145.105 211.84 146.492 211.153 147.345 210.58C148.212 210.007 148.818 209.4 149.165 208.76L148.065 202.22L152.045 201.42C152.245 203.26 152.385 204.653 152.465 205.6C152.558 206.547 152.605 207.407 152.605 208.18C152.605 209.5 152.398 210.653 151.985 211.64C151.572 212.627 150.878 213.547 149.905 214.4C148.932 215.253 147.592 216.1 145.885 216.94L143.185 212.64ZM70.908 235.8C71.068 238.12 71.148 239.967 71.148 241.34C71.148 242.98 70.6013 244.167 69.508 244.9C68.9213 245.3 68.1013 245.6 67.048 245.8C66.008 246 64.5613 246.1 62.708 246.1C60.188 246.1 58.2213 245.753 56.808 245.06C55.408 244.367 54.708 243.093 54.708 241.24C54.708 240.933 54.7546 240.453 54.848 239.8C54.9546 239.133 55.188 237.8 55.548 235.8L58.708 236.4C58.4013 237.973 58.248 239.007 58.248 239.5C58.248 239.953 58.5813 240.267 59.248 240.44C59.928 240.613 61.0613 240.7 62.648 240.7C64.7813 240.7 66.4346 240.567 67.608 240.3L67.048 236.52L70.908 235.8ZM62.488 247.44L65.248 249.76L62.988 252.48L60.228 250.18L62.488 247.44ZM78.9827 240.6C79.0493 240.6 79.1027 240.707 79.1427 240.92C79.196 241.133 79.2227 241.393 79.2227 241.7V244.9C79.2227 245.207 79.196 245.467 79.1427 245.68C79.1027 245.893 79.0493 246 78.9827 246H78.2227C77.116 246 76.2227 245.813 75.5427 245.44C74.876 245.053 74.3693 244.427 74.0227 243.56C73.6893 242.68 73.496 241.48 73.4427 239.96L73.0827 230.2L77.0827 229.6L76.9827 239.18C76.9693 239.647 77.056 240 77.2427 240.24C77.4293 240.48 77.756 240.6 78.2227 240.6H78.9827ZM87.2205 240.6C87.2871 240.6 87.3405 240.707 87.3805 240.92C87.4338 241.133 87.4605 241.393 87.4605 241.7V244.9C87.4605 245.207 87.4338 245.467 87.3805 245.68C87.3405 245.893 87.2871 246 87.2205 246C86.0338 246 85.1338 245.88 84.5205 245.64C83.9205 245.4 83.5071 244.96 83.2805 244.32C83.0938 244.787 82.8338 245.14 82.5005 245.38C82.1805 245.62 81.7471 245.787 81.2005 245.88C80.6538 245.96 79.9071 246 78.9605 246C78.8805 246 78.8205 245.9 78.7805 245.7C78.7271 245.487 78.7005 245.22 78.7005 244.9V241.7C78.7005 241.38 78.7271 241.12 78.7805 240.92C78.8205 240.707 78.8805 240.6 78.9605 240.6C80.2538 240.6 81.1871 240.513 81.7605 240.34L81.2805 237.16L85.0805 236.72L85.1805 240.42C85.7805 240.54 86.4605 240.6 87.2205 240.6ZM82.3405 247.34L85.1005 249.66L82.8405 252.38L80.0805 250.08L82.3405 247.34ZM92.4222 234.92C93.5422 236.04 94.3889 237.16 94.9622 238.28C95.5489 239.4 95.8422 240.58 95.8422 241.82C95.8422 242.887 95.5422 243.727 94.9422 244.34C94.3555 244.94 93.4422 245.367 92.2022 245.62C90.9622 245.873 89.3089 246 87.2422 246C87.1622 246 87.1022 245.9 87.0622 245.7C87.0089 245.487 86.9822 245.22 86.9822 244.9V241.7C86.9822 241.38 87.0089 241.12 87.0622 240.92C87.1022 240.707 87.1622 240.6 87.2422 240.6C89.1889 240.6 90.7622 240.533 91.9622 240.4C91.6289 239.693 91.0689 238.987 90.2822 238.28C89.4955 237.56 88.5422 236.9 87.4222 236.3L87.5422 232.54C88.7422 231.927 90.0222 231.387 91.3822 230.92C92.7422 230.453 94.2289 230.013 95.8422 229.6L96.4022 233.9C95.0689 234.153 93.7422 234.493 92.4222 234.92ZM106.99 240.6C107.057 240.6 107.11 240.707 107.15 240.92C107.204 241.133 107.23 241.393 107.23 241.7V244.9C107.23 245.207 107.204 245.467 107.15 245.68C107.11 245.893 107.057 246 106.99 246H106.23C105.124 246 104.23 245.813 103.55 245.44C102.884 245.053 102.377 244.427 102.03 243.56C101.697 242.68 101.504 241.48 101.45 239.96L101.09 230.2L105.09 229.6L104.99 239.18C104.977 239.647 105.064 240 105.25 240.24C105.437 240.48 105.764 240.6 106.23 240.6H106.99ZM113.508 236.6C113.668 238.813 113.748 240.393 113.748 241.34C113.748 242.073 113.622 242.747 113.368 243.36C113.128 243.96 112.755 244.453 112.248 244.84C111.755 245.227 111.108 245.52 110.308 245.72C109.508 245.907 108.402 246 106.988 246C106.908 246 106.848 245.9 106.808 245.7C106.755 245.487 106.728 245.22 106.728 244.9V241.7C106.728 241.38 106.755 241.12 106.808 240.92C106.848 240.707 106.908 240.6 106.988 240.6C108.442 240.6 109.495 240.513 110.148 240.34L109.588 236.54L113.448 235.8L113.508 236.6ZM109.548 247.34L112.308 249.66L110.048 252.38L107.288 250.08L109.548 247.34ZM121.541 240.6C121.608 240.6 121.661 240.707 121.701 240.92C121.755 241.133 121.781 241.393 121.781 241.7V244.9C121.781 245.207 121.755 245.467 121.701 245.68C121.661 245.893 121.608 246 121.541 246H120.781C119.675 246 118.781 245.813 118.101 245.44C117.435 245.053 116.928 244.427 116.581 243.56C116.248 242.68 116.055 241.48 116.001 239.96L115.641 230.2L119.641 229.6L119.541 239.18C119.528 239.647 119.615 240 119.801 240.24C119.988 240.48 120.315 240.6 120.781 240.6H121.541ZM128.059 236.6C128.219 238.813 128.299 240.393 128.299 241.34C128.299 242.073 128.172 242.747 127.919 243.36C127.679 243.96 127.306 244.453 126.799 244.84C126.306 245.227 125.659 245.52 124.859 245.72C124.059 245.907 122.952 246 121.539 246C121.459 246 121.399 245.9 121.359 245.7C121.306 245.487 121.279 245.22 121.279 244.9V241.7C121.279 241.38 121.306 241.12 121.359 240.92C121.399 240.707 121.459 240.6 121.539 240.6C122.992 240.6 124.046 240.513 124.699 240.34L124.139 236.54L127.999 235.8L128.059 236.6ZM124.099 247.34L126.859 249.66L124.599 252.38L121.839 250.08L124.099 247.34Z" fill="#FE8A59"/>
<defs>
<clipPath id="clip0">
<rect width="184" height="171" fill="white"/>
</clipPath>
</defs>
</svg>
